<?xml version="1.0" encoding="UTF-8"?> <svg xmlns="http://www.w3.org/2000/svg" xmlns:xlink="http://www.w3.org/1999/xlink" width="1044px" height="258px" viewBox="0 0 1044 258" version="1.1"><title>logo</title><g id="logo" stroke="none" stroke-width="1" fill="none" fill-rule="evenodd"><g id="Group-2" transform="translate(255.130150, 61.000000)" fill-rule="nonzero"><g id="Group-3" transform="translate(-0.000000, 0.000000)"><g id="RIVER-HEIGHTS" transform="translate(5.314094, 0.000000)" fill="#0369A1"><path d="M35.6,72 L22.3,46.6 L22.2,46.6 L22.2,72 L0,72 L0,1.2 L33,1.2 C38.7333333,1.2 43.6333333,2.21666667 47.7,4.25 C51.7666667,6.28333333 54.8166667,9.05 56.85,12.55 C58.8833333,16.05 59.9,20 59.9,24.4 C59.9,29.1333333 58.5833333,33.3333333 55.95,37 C53.3166667,40.6666667 49.5333333,43.3 44.6,44.9 L60,72 L35.6,72 Z M22.2,31.8 L31,31.8 C33.1333333,31.8 34.7333333,31.3166667 35.8,30.35 C36.8666667,29.3833333 37.4,27.8666667 37.4,25.8 C37.4,23.9333333 36.85,22.4666667 35.75,21.4 C34.65,20.3333333 33.0666667,19.8 31,19.8 L22.2,19.8 L22.2,31.8 Z" id="Shape"></path><polygon id="Path" points="91.885501 1.2 91.885501 72 69.685501 72 69.685501 1.2"></polygon><polygon id="Path" points="175.871002 1.2 152.071002 72 123.371002 72 99.571002 1.2 123.171002 1.2 137.771002 49.9 152.271002 1.2"></polygon><polygon id="Path" points="205.756503 18.9 205.756503 27.6 227.756503 27.6 227.756503 44.3 205.756503 44.3 205.756503 54.3 230.756503 54.3 230.756503 72 183.556503 72 183.556503 1.2 230.756503 1.2 230.756503 18.9"></polygon><path d="M277.442004,72 L264.142004,46.6 L264.042004,46.6 L264.042004,72 L241.842004,72 L241.842004,1.2 L274.842004,1.2 C280.575337,1.2 285.475337,2.21666667 289.542004,4.25 C293.608671,6.28333333 296.658671,9.05 298.692004,12.55 C300.725337,16.05 301.742004,20 301.742004,24.4 C301.742004,29.1333333 300.425337,33.3333333 297.792004,37 C295.158671,40.6666667 291.375337,43.3 286.442004,44.9 L301.842004,72 L277.442004,72 Z M264.042004,31.8 L272.842004,31.8 C274.975337,31.8 276.575337,31.3166667 277.642004,30.35 C278.708671,29.3833333 279.242004,27.8666667 279.242004,25.8 C279.242004,23.9333333 278.692004,22.4666667 277.592004,21.4 C276.492004,20.3333333 274.908671,19.8 272.842004,19.8 L264.042004,19.8 L264.042004,31.8 Z" id="Shape"></path><polygon id="Path" points="396.713006 1.2 396.713006 72 374.513006 72 374.513006 44.4 353.413006 44.4 353.413006 72 331.213006 72 331.213006 1.2 353.413006 1.2 353.413006 26.7 374.513006 26.7 374.513006 1.2"></polygon><polygon id="Path" points="431.598507 18.9 431.598507 27.6 453.598507 27.6 453.598507 44.3 431.598507 44.3 431.598507 54.3 456.598507 54.3 456.598507 72 409.398507 72 409.398507 1.2 456.598507 1.2 456.598507 18.9"></polygon><polygon id="Path" points="489.884008 1.2 489.884008 72 467.684008 72 467.684008 1.2"></polygon><path d="M545.969509,25.4 C545.102842,24 543.869509,22.9166667 542.269509,22.15 C540.669509,21.3833333 538.736175,21 536.469509,21 C532.202842,21 528.902842,22.3833333 526.569509,25.15 C524.236175,27.9166667 523.069509,31.7 523.069509,36.5 C523.069509,42.0333333 524.369509,46.1666667 526.969509,48.9 C529.569509,51.6333333 533.569509,53 538.969509,53 C544.102842,53 548.236175,50.9333333 551.369509,46.8 L533.669509,46.8 L533.669509,31.1 L569.769509,31.1 L569.769509,53.3 C566.702842,58.5666667 562.469509,63.0833333 557.069509,66.85 C551.669509,70.6166667 544.836175,72.5 536.569509,72.5 C529.236175,72.5 522.852842,70.9833333 517.419509,67.95 C511.986175,64.9166667 507.819509,60.6666667 504.919509,55.2 C502.019509,49.7333333 500.569509,43.5 500.569509,36.5 C500.569509,29.5 502.019509,23.2666667 504.919509,17.8 C507.819509,12.3333333 511.969509,8.08333333 517.369509,5.05 C522.769509,2.01666667 529.102842,0.5 536.369509,0.5 C545.636175,0.5 553.186175,2.73333333 559.019509,7.2 C564.852842,11.6666667 568.302842,17.7333333 569.369509,25.4 L545.969509,25.4 Z" id="Path"></path><polygon id="Path" points="645.95501 1.2 645.95501 72 623.75501 72 623.75501 44.4 602.65501 44.4 602.65501 72 580.45501 72 580.45501 1.2 602.65501 1.2 602.65501 26.7 623.75501 26.7 623.75501 1.2"></polygon><polygon id="Path" points="714.240511 1.2 714.240511 18.8 695.440511 18.8 695.440511 72 673.240511 72 673.240511 18.8 654.640511 18.8 654.640511 1.2"></polygon><path d="M750.626012,72.7 C742.159345,72.7 735.176012,70.7166667 729.676012,66.75 C724.176012,62.7833333 721.192678,56.9666667 720.726012,49.3 L744.326012,49.3 C744.659345,53.3666667 746.459345,55.4 749.726012,55.4 C750.926012,55.4 751.942678,55.1166667 752.776012,54.55 C753.609345,53.9833333 754.026012,53.1 754.026012,51.9 C754.026012,50.2333333 753.126012,48.8833333 751.326012,47.85 C749.526012,46.8166667 746.726012,45.6333333 742.926012,44.3 C738.392678,42.7 734.642678,41.1333333 731.676012,39.6 C728.709345,38.0666667 726.159345,35.8333333 724.026012,32.9 C721.892678,29.9666667 720.859345,26.2 720.926012,21.6 C720.926012,17 722.109345,13.0833333 724.476012,9.85 C726.842678,6.61666667 730.076012,4.16666667 734.176012,2.5 C738.276012,0.833333333 742.892678,0 748.026012,0 C756.692678,0 763.576012,2 768.676012,6 C773.776012,10 776.459345,15.6333333 776.726012,22.9 L752.826012,22.9 C752.759345,20.9 752.259345,19.4666667 751.326012,18.6 C750.392678,17.7333333 749.259345,17.3 747.926012,17.3 C746.992678,17.3 746.226012,17.6166667 745.626012,18.25 C745.026012,18.8833333 744.726012,19.7666667 744.726012,20.9 C744.726012,22.5 745.609345,23.8166667 747.376012,24.85 C749.142678,25.8833333 751.959345,27.1333333 755.826012,28.6 C760.292678,30.2666667 763.976012,31.8666667 766.876012,33.4 C769.776012,34.9333333 772.292678,37.0666667 774.426012,39.8 C776.559345,42.5333333 777.626012,45.9666667 777.626012,50.1 C777.626012,54.4333333 776.559345,58.3166667 774.426012,61.75 C772.292678,65.1833333 769.192678,67.8666667 765.126012,69.8 C761.059345,71.7333333 756.226012,72.7 750.626012,72.7 Z" id="Path"></path></g><g id="ANIMAL-HOSPITAL" transform="translate(0.000000, 95.003200)" fill="#3A3A3A"><path d="M34.99776,42.56672 L18.60992,42.56672 L16.17952,49.9968 L0,49.9968 L17.98496,0.83328 L35.7616,0.83328 L53.67712,49.9968 L37.42816,49.9968 L34.99776,42.56672 Z M31.248,30.97024 L26.80384,17.29056 L22.35968,30.97024 L31.248,30.97024 Z" id="Shape"></path><polygon id="Path" points="113.791692 49.9968 98.376012 49.9968 82.057612 25.27616 82.057612 49.9968 66.641932 49.9968 66.641932 0.83328 82.057612 0.83328 98.376012 25.97056 98.376012 0.83328 113.791692 0.83328"></polygon><polygon id="Path" points="145.644184 0.83328 145.644184 49.9968 130.228504 49.9968 130.228504 0.83328"></polygon><polygon id="Path" points="221.174436 0.83328 221.174436 49.9968 205.828196 49.9968 205.828196 25.48448 198.259236 49.9968 185.065636 49.9968 177.496676 25.48448 177.496676 49.9968 162.080996 49.9968 162.080996 0.83328 180.968676 0.83328 191.801316 30.34528 202.356196 0.83328"></polygon><path d="M269.137008,42.56672 L252.749168,42.56672 L250.318768,49.9968 L234.139248,49.9968 L252.124208,0.83328 L269.900848,0.83328 L287.816368,49.9968 L271.567408,49.9968 L269.137008,42.56672 Z M265.387248,30.97024 L260.943088,17.29056 L256.498928,30.97024 L265.387248,30.97024 Z" id="Shape"></path><polygon id="Path" points="316.19686 38.33088 331.05702 38.33088 331.05702 49.9968 300.78118 49.9968 300.78118 0.83328 316.19686 0.83328"></polygon><polygon id="Path" points="412.191444 0.83328 412.191444 49.9968 396.775764 49.9968 396.775764 30.83136 382.123924 30.83136 382.123924 49.9968 366.708244 49.9968 366.708244 0.83328 382.123924 0.83328 382.123924 18.54048 396.775764 18.54048 396.775764 0.83328"></polygon><path d="M452.585056,50.48288 C447.955723,50.48288 443.708309,49.3949867 439.842816,47.2192 C435.977323,45.0434133 432.910389,42.0343467 430.642016,38.192 C428.373643,34.3496533 427.239456,30.0212267 427.239456,25.20672 C427.239456,20.3922133 428.373643,16.0637867 430.642016,12.22144 C432.910389,8.37909333 435.977323,5.3816 439.842816,3.22896 C443.708309,1.07632 447.955723,0 452.585056,0 C457.214389,0 461.450229,1.07632 465.292576,3.22896 C469.134923,5.3816 472.178709,8.37909333 474.423936,12.22144 C476.669163,16.0637867 477.791776,20.3922133 477.791776,25.20672 C477.791776,30.0212267 476.669163,34.3496533 474.423936,38.192 C472.178709,42.0343467 469.123349,45.0434133 465.257856,47.2192 C461.392363,49.3949867 457.168096,50.48288 452.585056,50.48288 Z M452.585056,36.1088 C455.640416,36.1088 458.001376,35.1250667 459.667936,33.1576 C461.334496,31.1901333 462.167776,28.53984 462.167776,25.20672 C462.167776,21.8273067 461.334496,19.1538667 459.667936,17.1864 C458.001376,15.2189333 455.640416,14.2352 452.585056,14.2352 C449.483403,14.2352 447.099296,15.2189333 445.432736,17.1864 C443.766176,19.1538667 442.932896,21.8273067 442.932896,25.20672 C442.932896,28.53984 443.766176,31.1901333 445.432736,33.1576 C447.099296,35.1250667 449.483403,36.1088 452.585056,36.1088 Z" id="Shape"></path><path d="M512.074668,50.48288 C506.195415,50.48288 501.346188,49.1056533 497.526988,46.3512 C493.707788,43.5967467 491.636161,39.5576533 491.312108,34.23392 L507.699948,34.23392 C507.931415,37.0578133 509.181335,38.46976 511.449708,38.46976 C512.282988,38.46976 512.988961,38.2730133 513.567628,37.87952 C514.146295,37.4860267 514.435628,36.87264 514.435628,36.03936 C514.435628,34.8820267 513.810668,33.9445867 512.560748,33.22704 C511.310828,32.5094933 509.366508,31.6877867 506.727788,30.76192 C503.579841,29.65088 500.975841,28.5629867 498.915788,27.49824 C496.855735,26.4334933 495.085015,24.8826667 493.603628,22.84576 C492.122241,20.8088533 491.404695,18.19328 491.450988,14.99904 C491.450988,11.8048 492.272695,9.08506667 493.916108,6.83984 C495.559521,4.59461333 497.804748,2.89333333 500.651788,1.736 C503.498828,0.578666667 506.704641,0 510.269228,0 C516.287361,0 521.067148,1.3888 524.608588,4.1664 C528.150028,6.944 530.013335,10.8557867 530.198508,15.90176 L513.602348,15.90176 C513.556055,14.51296 513.208855,13.5176533 512.560748,12.91584 C511.912641,12.3140267 511.125655,12.01312 510.199788,12.01312 C509.551681,12.01312 509.019308,12.2330133 508.602668,12.6728 C508.186028,13.1125867 507.977708,13.7259733 507.977708,14.51296 C507.977708,15.624 508.591095,16.5382933 509.817868,17.25584 C511.044641,17.9733867 513.000535,18.8413867 515.685548,19.85984 C518.787201,21.0171733 521.344908,22.1282133 523.358668,23.19296 C525.372428,24.2577067 527.120001,25.7390933 528.601388,27.63712 C530.082775,29.5351467 530.823468,31.9192533 530.823468,34.78944 C530.823468,37.7985067 530.082775,40.4950933 528.601388,42.8792 C527.120001,45.2633067 524.967361,47.1266133 522.143468,48.46912 C519.319575,49.8116267 515.963308,50.48288 512.074668,50.48288 Z" id="Path"></path><path d="M585.93836,17.7072 C585.93836,20.8088533 585.220813,23.6211733 583.78572,26.14416 C582.350627,28.6671467 580.232707,30.6693333 577.43196,32.15072 C574.631213,33.6321067 571.240227,34.3728 567.259,34.3728 L561.14828,34.3728 L561.14828,49.9968 L545.7326,49.9968 L545.7326,0.83328 L567.259,0.83328 C573.277133,0.83328 577.894893,2.36096 581.11228,5.41632 C584.329667,8.47168 585.93836,12.56864 585.93836,17.7072 Z M565.523,22.2208 C568.71724,22.2208 570.31436,20.7162667 570.31436,17.7072 C570.31436,14.6981333 568.71724,13.1936 565.523,13.1936 L561.14828,13.1936 L561.14828,22.2208 L565.523,22.2208 Z" id="Shape"></path><polygon id="Path" points="615.707652 0.83328 615.707652 49.9968 600.291972 49.9968 600.291972 0.83328"></polygon><polygon id="Path" points="670.753104 0.83328 670.753104 13.05472 657.698384 13.05472 657.698384 49.9968 642.282704 49.9968 642.282704 13.05472 629.366864 13.05472 629.366864 0.83328"></polygon><path d="M715.938076,42.56672 L699.550236,42.56672 L697.119836,49.9968 L680.940316,49.9968 L698.925276,0.83328 L716.701916,0.83328 L734.617436,49.9968 L718.368476,49.9968 L715.938076,42.56672 Z M712.188316,30.97024 L707.744156,17.29056 L703.299996,30.97024 L712.188316,30.97024 Z" id="Shape"></path><polygon id="Path" points="762.997928 38.33088 777.858088 38.33088 777.858088 49.9968 747.582248 49.9968 747.582248 0.83328 762.997928 0.83328"></polygon></g></g></g><path d="M71,143 L71,175 L54.8194444,175 C48.1578889,175 42.7638889,169.606 42.7638889,162.944444 L42.7638889,133.236111 L13.0555556,133.236111 C6.394,133.236111 1,127.842111 1,121.180556 L1,73.8194444 C1,67.1647778 6.394,61.7638889 13.0555556,61.7638889 L42.7638889,61.7638889 L42.7638889,32.0555556 C42.7638889,25.4008889 48.1578889,20 54.8194444,20 L102.180556,20 C108.842111,20 114.236111,25.4008889 114.236111,32.0555556 L114.236111,61.7638889 L143.944444,61.7638889 C150.606,61.7638889 156,67.1647778 156,73.8194444 L156,104 L111,104 L111,143 L71,143 Z" id="Combined-Shape" fill="#0369A1" fill-rule="nonzero"></path><path d="M164.921006,235.293579 C164.316099,235.018993 162.22642,234.634573 160.356708,234.414905 C158.432003,234.195236 156.17735,233.700982 155.407468,233.261645 C154.582595,232.822307 153.757722,232.492805 153.482764,232.492805 C152.6029,232.492805 149.743339,229.417445 148.038601,226.781422 C147.048754,225.243742 145.563982,223.047057 144.739109,221.948714 C143.859244,220.850371 141.384625,216.457 139.294946,212.173463 C134.950614,203.551472 134.180732,202.562964 130.441307,200.750698 C127.746721,199.432687 127.196806,198.663847 128.626586,198.114675 C130.001375,197.565504 129.561442,196.467161 127.69173,195.588487 C124.722186,194.160641 123.182423,193.556553 122.082592,193.391801 C121.477685,193.281967 120.92777,192.897547 120.762795,192.568044 C120.652812,192.07379 121.257719,191.854121 122.852474,191.854121 L125.107127,191.854121 L123.402389,190.096773 C122.467533,189.108264 119.662964,185.209147 117.133353,181.419865 C113.008987,175.214228 109.874469,171.699531 106.35501,169.338094 C105.25518,168.569254 103.440459,167.251243 101.515755,165.76848 C96.7864817,162.143949 85.4582234,150.721184 85.4582234,149.622841 C85.4582234,149.293338 85.1282742,148.854001 84.7433334,148.634333 C84.3583925,148.414664 83.4235363,146.822067 82.5986631,145.119636 C81.0588998,141.934442 77.539441,137.15665 74.9548384,134.740296 C73.0301343,132.982948 67.3110136,124.30604 67.3110136,123.207697 C67.3110136,122.76836 66.9260728,121.670017 66.4861405,120.791343 C66.0462081,119.967586 65.6612673,118.814326 65.6612673,118.320072 C65.6612673,117.7709 65.2763265,116.892226 64.8363941,116.288137 C64.3964618,115.738966 64.0115209,114.860292 64.0115209,114.366038 C64.0115209,113.871783 62.1418084,110.686589 59.8321635,107.226809 C54.1130429,98.6597356 54.0030598,98.2753156 54.0030598,90.9164189 C54.0580513,84.7656993 54.7729414,80.9214995 56.6426539,77.5166369 C57.962451,75.1002827 57.4125356,69.8831545 56.0927385,72.0798401 C55.9277639,72.3544258 55.1028907,72.7388457 54.2780175,72.9585143 C52.2983219,73.4527686 47.0191336,78.9993997 45.3693872,82.3493452 C44.6544972,83.8321079 43.7746324,85.6443735 43.3896916,86.4132135 C43.0047508,87.1820534 42.5098269,88.6648162 42.2898607,89.7082419 C42.0698946,90.7516675 41.6849537,92.6188503 41.4649876,93.8270273 C41.1900298,95.1450387 41.2450214,98.0556471 41.5749707,101.021173 C42.014903,104.645704 42.014903,106.293218 41.5749707,107.062058 C41.0250552,107.995649 40.9700637,107.885815 40.9150721,106.403052 C40.9150721,105.359627 40.5851228,104.53587 40.0901989,104.316201 C39.4303004,104.096532 39.2653258,104.480952 39.2653258,105.908798 C39.2653258,107.556312 38.4954441,109.972666 37.0106724,112.938192 C34.9759853,116.892226 34.3710783,122.164271 35.6358838,125.019963 C36.2407908,126.283057 34.8110106,126.283057 33.7661713,124.965045 C31.9514503,122.76836 31.016594,120.46184 30.9616025,118.15532 C30.9616025,116.892226 30.7966279,116.123386 30.6316532,116.507806 C30.5216701,116.837309 30.1917209,117.056977 29.9167631,116.892226 C29.6418054,116.727475 29.3118562,117.056977 29.09189,117.661066 C28.9269153,118.265154 28.4319914,118.869243 28.0470506,118.979077 C27.4421436,119.253663 27.3321605,118.649574 27.5521267,116.068469 C27.7720929,113.816866 27.5521267,111.949683 26.9472197,110.027583 C25.6824142,106.238301 25.2974734,101.131007 25.9573719,97.23189 C26.4522958,94.1565302 26.3973043,94.101613 25.462448,94.9802873 C24.857541,95.5294586 24.4176087,96.5728843 24.4176087,97.3417243 C24.3626171,98.6048185 24.3076256,98.6597356 23.8127017,97.7810614 C22.4929046,95.4745415 25.9023804,85.9189592 29.4768308,82.0198423 C30.301704,81.086251 31.016594,80.0428253 31.016594,79.7133225 C31.016594,78.9993997 28.1570337,79.6584053 27.6071183,80.5370796 C26.8922282,81.6903395 27.1121944,79.932991 27.9370675,78.0108911 C28.9819069,75.5396199 33.6561882,71.0364144 35.250943,71.0364144 C35.6358838,71.0364144 35.9658331,70.8167459 35.9658331,70.5421602 C35.9658331,70.2675745 36.6807232,69.8831545 37.6155794,69.6634859 C38.4954441,69.4438174 39.2653258,69.1143145 39.2653258,68.8397288 C39.2653258,68.6200603 40.0352074,68.2905574 40.9150721,68.125806 C43.6646494,67.5217175 42.7847846,66.6430433 39.4852919,66.6430433 C36.9556809,66.6430433 36.5707401,66.533209 37.1756471,65.9291204 C38.275478,64.8307777 41.409996,63.787352 44.7644803,63.402932 L47.7890152,63.0734292 L46.0842773,62.3045892 L44.3245479,61.4808321 L45.644345,60.7669093 C46.4142266,60.4374065 48.5039053,59.9431522 50.3186263,59.7234837 C53.4531443,59.3939808 53.618119,59.2841466 53.3431612,58.0759695 C52.9032289,56.4833724 54.0580513,51.8154156 55.0478991,50.8269071 C55.43284,50.4424871 55.7627892,49.8383986 55.7627892,49.5638129 C55.7627892,48.9597243 61.0419775,43.7425961 62.9116901,42.4795019 C63.5715886,42.0401647 64.5064449,41.3262419 64.8913857,40.941822 C65.9912166,39.8983963 72.8651597,36.4386165 73.909999,36.4386165 C74.4049229,36.4386165 75.0098299,36.218948 75.3397792,35.9443623 C75.8347031,35.3951909 81.1138914,34.3517652 85.5682065,33.857511 C94.1468875,32.9239196 98.9311519,40.6123191 92.0022173,44.0720989 C90.9573779,44.6212703 89.1976485,44.6761874 85.6781896,44.4565189 C82.9836039,44.2368503 80.069052,44.0720989 79.1341958,44.0720989 C77.0445171,43.9622646 72.2602527,45.1704417 72.2602527,45.7745302 C72.2602527,45.9941988 71.6003541,46.3786188 70.8304725,46.5433702 C70.0605909,46.7630387 68.5208276,47.8064644 67.4209967,48.8498901 C65.7162588,50.4974042 65.4413011,51.1014928 65.4413011,53.5178469 C65.3863096,56.0440353 65.5512842,56.4284553 67.5309798,58.1858038 C68.6858023,59.2292294 69.7856332,60.0529865 70.0055993,60.0529865 C70.6654979,60.0529865 72.2602527,63.8422691 72.2602527,65.2701148 C72.2602527,66.8627118 70.8854641,71.256083 69.7856332,73.3429343 C69.3457008,74.1117742 68.96076,75.3199513 68.96076,75.978957 C68.96076,77.7912226 71.1604218,86.5779649 71.7653288,87.2369706 C72.0402865,87.5115563 72.2602527,88.0058105 72.2602527,88.3902305 C72.2602527,89.2139876 74.1849567,93.3327731 75.5597454,95.4745415 C76.1646524,96.4081329 76.8245509,97.4515585 77.0445171,97.8908956 C77.2094917,98.3302328 78.1993395,99.4834927 79.2441789,100.526918 C81.3338576,102.723604 81.4988322,103.108024 79.959069,102.61377 C79.354162,102.449018 78.8592381,102.394101 78.8592381,102.558853 C78.8592381,103.162941 84.0834348,107.830898 84.7433334,107.830898 C85.1282742,107.830898 85.4582234,108.105484 85.4582234,108.380069 C85.4582234,108.709572 85.7881727,108.929241 86.2281051,108.929241 C86.6680374,108.929241 87.3829275,109.258744 87.7678683,109.643164 C88.647733,110.466921 97.0614394,114.420955 97.9962957,114.420955 C98.3812365,114.420955 98.6561942,114.640623 98.6561942,114.915209 C98.6561942,115.189795 99.646042,115.574215 100.855856,115.793883 C102.06567,116.013552 103.165501,116.397972 103.385467,116.672557 C103.550442,116.947143 104.045366,117.166812 104.485298,117.166812 C105.805095,117.166812 110.149427,119.30858 111.744182,120.736426 C114.16381,122.823277 115.538598,123.976537 116.748412,124.855211 C117.573286,125.404383 117.683269,125.733885 117.188345,126.063388 C116.693421,126.392891 116.748412,126.667477 117.408311,127.216648 C118.343167,127.930571 123.952305,136.277976 125.822017,139.682839 C126.371933,140.726264 127.306789,142.483613 127.856705,143.527039 C129.451459,146.437647 130.881239,147.810575 133.520834,149.07367 C134.950614,149.732675 136.60036,151.105604 137.480225,152.368698 C138.964997,154.510467 143.639278,158.354666 144.739109,158.354666 C145.069058,158.354666 145.179041,157.475992 145.014066,156.322732 C144.904083,155.169472 145.12405,153.137538 145.50899,151.874444 L146.22388,149.45809 L147.708652,150.61135 C148.478534,151.270355 149.633356,151.76461 150.238263,151.76461 C150.84317,151.76461 152.107976,152.368698 152.987841,153.137538 C153.922697,153.906378 154.802561,154.510467 155.022528,154.510467 C155.792409,154.510467 154.802561,151.215438 153.427773,149.238421 L152.052984,147.261404 L153.922697,145.339304 C155.902392,143.30737 157.167198,140.122176 157.772105,135.564053 C157.992071,134.081291 158.596978,132.269025 159.201885,131.555102 C160.356708,130.072339 159.971767,128.754328 157.827096,126.942062 C154.087671,123.756868 154.087671,123.756868 150.788179,123.756868 C147.598669,123.756868 146.773796,123.15278 148.533525,122.219188 C149.303407,121.724934 149.358399,121.450349 148.6985,119.967586 C148.038601,118.320072 148.093593,116.727475 149.028449,110.961175 C149.248415,109.588246 149.083441,108.270235 148.478534,107.062058 C147.98361,106.018632 147.598669,104.92029 147.598669,104.645704 C147.598669,104.316201 147.433694,103.986698 147.213728,103.876864 C146.938771,103.821947 146.168889,102.503935 145.453999,100.966255 C144.684117,99.4834927 143.969227,98.1105642 143.749261,97.9458128 C143.034371,97.3966414 140.339785,91.1910046 139.624895,88.3353134 C138.36009,83.5026051 137.040292,75.1551999 137.260259,73.1781829 C137.480225,71.3110001 137.480225,71.3110001 138.085132,72.6839286 C138.415081,73.4527686 139.129971,76.4732112 139.624895,79.4387368 C140.174811,82.5690137 140.834709,84.7107822 141.164658,84.6009479 C142.374472,84.2165279 143.749261,80.5919967 143.749261,77.7912226 C143.749261,75.1551999 143.859244,74.825697 145.399007,74.0568571 C146.828787,73.3429343 147.048754,72.9035972 147.048754,70.9814973 C147.048754,69.6634859 147.488686,68.125806 148.093593,67.3020489 C149.193424,65.7094519 151.448077,60.9865779 151.448077,60.2177379 C151.448077,59.9980694 152.217959,58.9546437 153.207807,57.9112181 C154.912545,56.0989525 154.967536,56.0989525 158.981919,56.318621 C161.236572,56.4833724 163.326251,56.8677924 163.711192,57.2522124 C164.041141,57.5817152 165.250955,57.8563009 166.350786,57.8563009 C167.505608,57.8563009 169.045372,58.0759695 169.815253,58.4054723 C171.025067,58.8448094 171.245033,59.2841466 171.245033,61.0964122 C171.245033,62.9086778 170.970076,63.5127663 169.485304,64.6660262 C168.495456,65.379949 167.010684,66.148789 166.185811,66.3684576 C164.206116,66.8627118 163.6562,68.2905574 165.470921,68.2905574 C166.240803,68.2905574 166.84571,68.510226 166.84571,68.7848117 C166.84571,69.0593974 167.450617,69.4438174 168.220498,69.6085688 C170.365169,70.1577402 170.145202,73.1232657 167.725575,75.6494541 C166.020837,77.4617197 165.635896,77.6264712 162.831327,77.6264712 C159.36686,77.6264712 158.926927,78.0108911 157.662122,82.5690137 C156.782257,85.6443735 156.727266,102.723604 157.552139,107.775981 C158.212037,111.675098 160.136741,118.210237 160.906623,119.033994 C161.126589,119.363497 161.346555,119.912669 161.346555,120.352006 C161.346555,121.120846 164.151124,126.942062 166.185811,130.346925 C169.870245,136.497645 172.89478,144.954884 172.89478,149.128587 C172.89478,150.501515 173.004763,150.556432 174.599518,150.117095 C176.084289,149.677758 176.249264,149.732675 175.864323,150.556432 C175.589365,151.050687 175.479382,152.862952 175.534374,154.510467 C175.589365,156.157981 175.699349,159.453009 175.75434,161.759529 C175.809332,164.99964 175.974306,165.823397 176.46923,165.329143 C176.799179,164.944723 177.239112,164.285717 177.459078,163.84638 C177.624053,163.407043 177.789027,164.011132 177.789027,165.219309 C177.844019,166.482403 177.18412,169.283177 176.414239,171.53478 C173.279721,180.815776 173.004763,182.682959 174.269568,186.636993 C175.094442,189.327933 175.369399,189.657436 177.074137,189.986939 C179.108824,190.371359 179.878706,191.030364 178.94385,191.579536 C178.668892,191.744287 178.393934,192.513127 178.393934,193.172133 C178.393934,194.325393 178.723883,194.490144 182.133359,194.874564 C184.168046,195.14915 188.457387,195.258984 191.646897,195.204067 C195.441313,195.094233 197.640975,195.258984 197.860941,195.643404 C198.080907,195.972907 198.685814,196.247493 199.180738,196.247493 C200.115594,196.247493 204.23996,199.542521 204.23996,200.311361 C204.23996,200.585947 204.899859,201.684289 205.779724,202.782632 C208.474309,206.352246 209.189199,208.109595 209.189199,211.184954 C209.189199,214.425066 208.474309,215.523409 205.889707,216.292248 C205.119825,216.511917 204.294952,216.896337 203.965003,217.116006 C203.690045,217.335674 202.370248,217.720094 201.105442,217.939763 C199.785645,218.159431 198.630823,218.543851 198.410857,218.818437 C198.245882,219.093023 197.750958,219.312691 197.256034,219.312691 C196.376169,219.312691 193.736575,220.356117 190.107133,222.2233 C187.85248,223.376559 186.09275,225.792914 186.09275,227.769931 C186.09275,229.417445 181.033528,233.481313 177.294103,234.854242 C174.654509,235.84275 166.955693,236.117336 164.921006,235.293579 Z" id="Path" fill="#434343" fill-rule="nonzero" transform="translate(116.355906, 134.779520) scale(-1, 1) rotate(180.000000) translate(-116.355906, -134.779520) "></path></g></svg> 