<?xml version="1.0" encoding="UTF-8"?> <svg xmlns="http://www.w3.org/2000/svg" xmlns:xlink="http://www.w3.org/1999/xlink" width="1409px" height="517px" viewBox="0 0 1409 517" version="1.1"><title>Artboard</title><g id="Artboard" stroke="none" stroke-width="1" fill="none" fill-rule="evenodd"><path d="M931,249.513889 L931,363.486111 C931,379.516822 918.0196,392.497222 901.988889,392.497222 L830.497222,392.497222 L830.497222,463.988889 C830.497222,480.0196 817.516822,493 801.486111,493 L687.513889,493 C671.483178,493 658.502778,480.0196 658.502778,463.988889 L658.502778,392.497222 L587.011111,392.497222 C570.9804,392.497222 558,379.516822 558,363.486111 L558,249.513889 C558,233.499756 570.9804,220.502778 587.011111,220.502778 L658.502778,220.502778 L658.502778,149.011111 C658.502778,132.996978 671.483178,120 687.513889,120 L801.486111,120 C817.516822,120 830.497222,132.996978 830.497222,149.011111 L830.497222,220.502778 L901.988889,220.502778 C918.0196,220.502778 931,233.499756 931,249.513889 Z" id="Path" fill="#0369A1" fill-rule="nonzero" transform="translate(744.500000, 306.500000) rotate(90.000000) translate(-744.500000, -306.500000) "></path><path d="M1130,332.555556 L1130,381.444444 C1130,388.320889 1124.432,393.888889 1117.55556,393.888889 L1086.88889,393.888889 L1086.88889,424.555556 C1086.88889,431.432 1081.32089,437 1074.44444,437 L1025.55556,437 C1018.67911,437 1013.11111,431.432 1013.11111,424.555556 L1013.11111,393.888889 L982.444444,393.888889 C975.568,393.888889 970,388.320889 970,381.444444 L970,332.555556 C970,325.686222 975.568,320.111111 982.444444,320.111111 L1013.11111,320.111111 L1013.11111,289.444444 C1013.11111,282.575111 1018.67911,277 1025.55556,277 L1074.44444,277 C1081.32089,277 1086.88889,282.575111 1086.88889,289.444444 L1086.88889,320.111111 L1117.55556,320.111111 C1124.432,320.111111 1130,325.686222 1130,332.555556 Z" id="Path-Copy" fill="#075985" fill-rule="nonzero" transform="translate(1050.000000, 357.000000) rotate(90.000000) translate(-1050.000000, -357.000000) "></path><path d="M240,336.333333 L240,409.666667 C240,419.981333 231.648,428.333333 221.333333,428.333333 L175.333333,428.333333 L175.333333,474.333333 C175.333333,484.648 166.981333,493 156.666667,493 L83.3333333,493 C73.0186667,493 64.6666667,484.648 64.6666667,474.333333 L64.6666667,428.333333 L18.6666667,428.333333 C8.352,428.333333 0,419.981333 0,409.666667 L0,336.333333 C0,326.029333 8.352,317.666667 18.6666667,317.666667 L64.6666667,317.666667 L64.6666667,271.666667 C64.6666667,261.362667 73.0186667,253 83.3333333,253 L156.666667,253 C166.981333,253 175.333333,261.362667 175.333333,271.666667 L175.333333,317.666667 L221.333333,317.666667 C231.648,317.666667 240,326.029333 240,336.333333 Z" id="Path-Copy" fill="#075985" fill-rule="nonzero" transform="translate(120.000000, 373.000000) rotate(90.000000) translate(-120.000000, -373.000000) "></path><path d="M1329,135.555556 L1329,184.444444 C1329,191.320889 1323.432,196.888889 1316.55556,196.888889 L1285.88889,196.888889 L1285.88889,227.555556 C1285.88889,234.432 1280.32089,240 1273.44444,240 L1224.55556,240 C1217.67911,240 1212.11111,234.432 1212.11111,227.555556 L1212.11111,196.888889 L1181.44444,196.888889 C1174.568,196.888889 1169,191.320889 1169,184.444444 L1169,135.555556 C1169,128.686222 1174.568,123.111111 1181.44444,123.111111 L1212.11111,123.111111 L1212.11111,92.4444444 C1212.11111,85.5751111 1217.67911,80 1224.55556,80 L1273.44444,80 C1280.32089,80 1285.88889,85.5751111 1285.88889,92.4444444 L1285.88889,123.111111 L1316.55556,123.111111 C1323.432,123.111111 1329,128.686222 1329,135.555556 Z" id="Path-Copy-4" fill="#0284C7" fill-rule="nonzero" transform="translate(1249.000000, 160.000000) rotate(90.000000) translate(-1249.000000, -160.000000) "></path><path d="M501,306.444444 L501,367.555556 C501,376.151111 494.04,383.111111 485.444444,383.111111 L447.111111,383.111111 L447.111111,421.444444 C447.111111,430.04 440.151111,437 431.555556,437 L370.444444,437 C361.848889,437 354.888889,430.04 354.888889,421.444444 L354.888889,383.111111 L316.555556,383.111111 C307.96,383.111111 301,376.151111 301,367.555556 L301,306.444444 C301,297.857778 307.96,290.888889 316.555556,290.888889 L354.888889,290.888889 L354.888889,252.555556 C354.888889,243.968889 361.848889,237 370.444444,237 L431.555556,237 C440.151111,237 447.111111,243.968889 447.111111,252.555556 L447.111111,290.888889 L485.444444,290.888889 C494.04,290.888889 501,297.857778 501,306.444444 Z" id="Path-Copy-4" fill="#0284C7" fill-rule="nonzero" transform="translate(401.000000, 337.000000) rotate(90.000000) translate(-401.000000, -337.000000) "></path><path d="M1409,360.333333 L1409,433.666667 C1409,443.981333 1400.648,452.333333 1390.33333,452.333333 L1344.33333,452.333333 L1344.33333,498.333333 C1344.33333,508.648 1335.98133,517 1325.66667,517 L1252.33333,517 C1242.01867,517 1233.66667,508.648 1233.66667,498.333333 L1233.66667,452.333333 L1187.66667,452.333333 C1177.352,452.333333 1169,443.981333 1169,433.666667 L1169,360.333333 C1169,350.029333 1177.352,341.666667 1187.66667,341.666667 L1233.66667,341.666667 L1233.66667,295.666667 C1233.66667,285.362667 1242.01867,277 1252.33333,277 L1325.66667,277 C1335.98133,277 1344.33333,285.362667 1344.33333,295.666667 L1344.33333,341.666667 L1390.33333,341.666667 C1400.648,341.666667 1409,350.029333 1409,360.333333 Z" id="Path-Copy-2" fill="#919191" fill-rule="nonzero" transform="translate(1289.000000, 397.000000) rotate(90.000000) translate(-1289.000000, -397.000000) "></path><path d="M620,61.8055556 L620,116.194444 C620,123.844489 613.8056,130.038889 606.155556,130.038889 L572.038889,130.038889 L572.038889,164.155556 C572.038889,171.8056 565.844489,178 558.194444,178 L503.805556,178 C496.155511,178 489.961111,171.8056 489.961111,164.155556 L489.961111,130.038889 L455.844444,130.038889 C448.1944,130.038889 442,123.844489 442,116.194444 L442,61.8055556 C442,54.1634222 448.1944,47.9611111 455.844444,47.9611111 L489.961111,47.9611111 L489.961111,13.8444444 C489.961111,6.20231111 496.155511,0 503.805556,0 L558.194444,0 C565.844489,0 572.038889,6.20231111 572.038889,13.8444444 L572.038889,47.9611111 L606.155556,47.9611111 C613.8056,47.9611111 620,54.1634222 620,61.8055556 Z" id="Path-Copy-2" fill="#919191" fill-rule="nonzero" transform="translate(531.000000, 89.000000) rotate(90.000000) translate(-531.000000, -89.000000) "></path><path d="M1130,83.3333333 L1130,156.666667 C1130,166.981333 1121.648,175.333333 1111.33333,175.333333 L1065.33333,175.333333 L1065.33333,221.333333 C1065.33333,231.648 1056.98133,240 1046.66667,240 L973.333333,240 C963.018667,240 954.666667,231.648 954.666667,221.333333 L954.666667,175.333333 L908.666667,175.333333 C898.352,175.333333 890,166.981333 890,156.666667 L890,83.3333333 C890,73.0293333 898.352,64.6666667 908.666667,64.6666667 L954.666667,64.6666667 L954.666667,18.6666667 C954.666667,8.36266667 963.018667,0 973.333333,0 L1046.66667,0 C1056.98133,0 1065.33333,8.36266667 1065.33333,18.6666667 L1065.33333,64.6666667 L1111.33333,64.6666667 C1121.648,64.6666667 1130,73.0293333 1130,83.3333333 Z" id="Path-Copy-3" fill="#6E6D6D" fill-rule="nonzero" transform="translate(1010.000000, 120.000000) rotate(90.000000) translate(-1010.000000, -120.000000) "></path><path d="M360,101.333333 L360,174.666667 C360,184.981333 351.648,193.333333 341.333333,193.333333 L295.333333,193.333333 L295.333333,239.333333 C295.333333,249.648 286.981333,258 276.666667,258 L203.333333,258 C193.018667,258 184.666667,249.648 184.666667,239.333333 L184.666667,193.333333 L138.666667,193.333333 C128.352,193.333333 120,184.981333 120,174.666667 L120,101.333333 C120,91.0293333 128.352,82.6666667 138.666667,82.6666667 L184.666667,82.6666667 L184.666667,36.6666667 C184.666667,26.3626667 193.018667,18 203.333333,18 L276.666667,18 C286.981333,18 295.333333,26.3626667 295.333333,36.6666667 L295.333333,82.6666667 L341.333333,82.6666667 C351.648,82.6666667 360,91.0293333 360,101.333333 Z" id="Path-Copy-3" fill="#6E6D6D" fill-rule="nonzero" transform="translate(240.000000, 138.000000) rotate(90.000000) translate(-240.000000, -138.000000) "></path></g></svg> 