<?xml version="1.0" encoding="UTF-8"?> <svg xmlns="http://www.w3.org/2000/svg" xmlns:xlink="http://www.w3.org/1999/xlink" width="436px" height="700px" viewBox="0 0 436 700" version="1.1"><title>medical-cross-svgrepo-com</title><g id="Page-1" stroke="none" stroke-width="1" fill="none" fill-rule="evenodd"><g id="MOOD-BOARD-Copy-2" transform="translate(0.000000, -2190.000000)" fill-rule="nonzero"><g id="medical-cross-svgrepo-com" transform="translate(-112.000000, 2190.000000)"><path d="M373,456.513889 L373,570.486111 C373,586.516822 360.0196,599.497222 343.988889,599.497222 L272.497222,599.497222 L272.497222,670.988889 C272.497222,687.0196 259.516822,700 243.486111,700 L129.513889,700 C113.483178,700 100.502778,687.0196 100.502778,670.988889 L100.502778,599.497222 L29.0111111,599.497222 C12.9804,599.497222 0,586.516822 0,570.486111 L0,456.513889 C0,440.499756 12.9804,427.502778 29.0111111,427.502778 L100.502778,427.502778 L100.502778,356.011111 C100.502778,339.996978 113.483178,327 129.513889,327 L243.486111,327 C259.516822,327 272.497222,339.996978 272.497222,356.011111 L272.497222,427.502778 L343.988889,427.502778 C360.0196,427.502778 373,440.499756 373,456.513889 Z" id="Path" fill="#0369A1"></path><path d="M548,429.555556 L548,478.444444 C548,485.320889 542.432,490.888889 535.555556,490.888889 L504.888889,490.888889 L504.888889,521.555556 C504.888889,528.432 499.320889,534 492.444444,534 L443.555556,534 C436.679111,534 431.111111,528.432 431.111111,521.555556 L431.111111,490.888889 L400.444444,490.888889 C393.568,490.888889 388,485.320889 388,478.444444 L388,429.555556 C388,422.686222 393.568,417.111111 400.444444,417.111111 L431.111111,417.111111 L431.111111,386.444444 C431.111111,379.575111 436.679111,374 443.555556,374 L492.444444,374 C499.320889,374 504.888889,379.575111 504.888889,386.444444 L504.888889,417.111111 L535.555556,417.111111 C542.432,417.111111 548,422.686222 548,429.555556 Z" id="Path-Copy" fill="#075985"></path><path d="M192,192.555556 L192,241.444444 C192,248.320889 186.432,253.888889 179.555556,253.888889 L148.888889,253.888889 L148.888889,284.555556 C148.888889,291.432 143.320889,297 136.444444,297 L87.5555556,297 C80.6791111,297 75.1111111,291.432 75.1111111,284.555556 L75.1111111,253.888889 L44.4444444,253.888889 C37.568,253.888889 32,248.320889 32,241.444444 L32,192.555556 C32,185.686222 37.568,180.111111 44.4444444,180.111111 L75.1111111,180.111111 L75.1111111,149.444444 C75.1111111,142.575111 80.6791111,137 87.5555556,137 L136.444444,137 C143.320889,137 148.888889,142.575111 148.888889,149.444444 L148.888889,180.111111 L179.555556,180.111111 C186.432,180.111111 192,185.686222 192,192.555556 Z" id="Path-Copy-4" fill="#0284C7"></path><path d="M319,55.5555556 L319,104.444444 C319,111.320889 313.432,116.888889 306.555556,116.888889 L275.888889,116.888889 L275.888889,147.555556 C275.888889,154.432 270.320889,160 263.444444,160 L214.555556,160 C207.679111,160 202.111111,154.432 202.111111,147.555556 L202.111111,116.888889 L171.444444,116.888889 C164.568,116.888889 159,111.320889 159,104.444444 L159,55.5555556 C159,48.6862222 164.568,43.1111111 171.444444,43.1111111 L202.111111,43.1111111 L202.111111,12.4444444 C202.111111,5.57511111 207.679111,0 214.555556,0 L263.444444,0 C270.320889,0 275.888889,5.57511111 275.888889,12.4444444 L275.888889,43.1111111 L306.555556,43.1111111 C313.432,43.1111111 319,48.6862222 319,55.5555556 Z" id="Path-Copy-2" fill="#919191"></path><path d="M493,217.333333 L493,290.666667 C493,300.981333 484.648,309.333333 474.333333,309.333333 L428.333333,309.333333 L428.333333,355.333333 C428.333333,365.648 419.981333,374 409.666667,374 L336.333333,374 C326.018667,374 317.666667,365.648 317.666667,355.333333 L317.666667,309.333333 L271.666667,309.333333 C261.352,309.333333 253,300.981333 253,290.666667 L253,217.333333 C253,207.029333 261.352,198.666667 271.666667,198.666667 L317.666667,198.666667 L317.666667,152.666667 C317.666667,142.362667 326.018667,134 336.333333,134 L409.666667,134 C419.981333,134 428.333333,142.362667 428.333333,152.666667 L428.333333,198.666667 L474.333333,198.666667 C484.648,198.666667 493,207.029333 493,217.333333 Z" id="Path-Copy-3" fill="#6E6D6D"></path></g></g></g></svg> 