<?xml version="1.0" encoding="UTF-8"?> <svg xmlns="http://www.w3.org/2000/svg" xmlns:xlink="http://www.w3.org/1999/xlink" width="966px" height="479px" viewBox="0 0 966 479" version="1.1"><title>crosses</title><g id="crosses" stroke="none" stroke-width="1" fill="none" fill-rule="evenodd"><g id="medical-cross-svgrepo-com" transform="translate(483.000000, 239.500000) rotate(90.000000) translate(-483.000000, -239.500000) translate(243.500000, -243.500000)" fill-rule="nonzero"><path d="M373,722.513889 L373,836.486111 C373,852.516822 360.0196,865.497222 343.988889,865.497222 L272.497222,865.497222 L272.497222,936.988889 C272.497222,953.0196 259.516822,966 243.486111,966 L129.513889,966 C113.483178,966 100.502778,953.0196 100.502778,936.988889 L100.502778,865.497222 L29.0111111,865.497222 C12.9804,865.497222 0,852.516822 0,836.486111 L0,722.513889 C0,706.499756 12.9804,693.502778 29.0111111,693.502778 L100.502778,693.502778 L100.502778,622.011111 C100.502778,605.996978 113.483178,593 129.513889,593 L243.486111,593 C259.516822,593 272.497222,605.996978 272.497222,622.011111 L272.497222,693.502778 L343.988889,693.502778 C360.0196,693.502778 373,706.499756 373,722.513889 Z" id="Path" fill="#0369A1"></path><path d="M432,83.3333333 L432,156.666667 C432,166.981333 423.648,175.333333 413.333333,175.333333 L367.333333,175.333333 L367.333333,221.333333 C367.333333,231.648 358.981333,240 348.666667,240 L275.333333,240 C265.018667,240 256.666667,231.648 256.666667,221.333333 L256.666667,175.333333 L210.666667,175.333333 C200.352,175.333333 192,166.981333 192,156.666667 L192,83.3333333 C192,73.0293333 200.352,64.6666667 210.666667,64.6666667 L256.666667,64.6666667 L256.666667,18.6666667 C256.666667,8.36266667 265.018667,1.9808662e-13 275.333333,1.9808662e-13 L348.666667,1.9808662e-13 C358.981333,1.9808662e-13 367.333333,8.36266667 367.333333,18.6666667 L367.333333,64.6666667 L413.333333,64.6666667 C423.648,64.6666667 432,73.0293333 432,83.3333333 Z" id="Path" fill="#0369A1"></path><path d="M183,188.555556 L183,237.444444 C183,244.320889 177.432,249.888889 170.555556,249.888889 L139.888889,249.888889 L139.888889,280.555556 C139.888889,287.432 134.320889,293 127.444444,293 L78.5555556,293 C71.6791111,293 66.1111111,287.432 66.1111111,280.555556 L66.1111111,249.888889 L35.4444444,249.888889 C28.568,249.888889 23,244.320889 23,237.444444 L23,188.555556 C23,181.686222 28.568,176.111111 35.4444444,176.111111 L66.1111111,176.111111 L66.1111111,145.444444 C66.1111111,138.575111 71.6791111,133 78.5555556,133 L127.444444,133 C134.320889,133 139.888889,138.575111 139.888889,145.444444 L139.888889,176.111111 L170.555556,176.111111 C177.432,176.111111 183,181.686222 183,188.555556 Z" id="Path-Copy" fill="#075985"></path><path d="M192,458.555556 L192,507.444444 C192,514.320889 186.432,519.888889 179.555556,519.888889 L148.888889,519.888889 L148.888889,550.555556 C148.888889,557.432 143.320889,563 136.444444,563 L87.5555556,563 C80.6791111,563 75.1111111,557.432 75.1111111,550.555556 L75.1111111,519.888889 L44.4444444,519.888889 C37.568,519.888889 32,514.320889 32,507.444444 L32,458.555556 C32,451.686222 37.568,446.111111 44.4444444,446.111111 L75.1111111,446.111111 L75.1111111,415.444444 C75.1111111,408.575111 80.6791111,403 87.5555556,403 L136.444444,403 C143.320889,403 148.888889,408.575111 148.888889,415.444444 L148.888889,446.111111 L179.555556,446.111111 C186.432,446.111111 192,451.686222 192,458.555556 Z" id="Path-Copy-4" fill="#0284C7"></path><path d="M307,321.555556 L307,370.444444 C307,377.320889 301.432,382.888889 294.555556,382.888889 L263.888889,382.888889 L263.888889,413.555556 C263.888889,420.432 258.320889,426 251.444444,426 L202.555556,426 C195.679111,426 190.111111,420.432 190.111111,413.555556 L190.111111,382.888889 L159.444444,382.888889 C152.568,382.888889 147,377.320889 147,370.444444 L147,321.555556 C147,314.686222 152.568,309.111111 159.444444,309.111111 L190.111111,309.111111 L190.111111,278.444444 C190.111111,271.575111 195.679111,266 202.555556,266 L251.444444,266 C258.320889,266 263.888889,271.575111 263.888889,278.444444 L263.888889,309.111111 L294.555556,309.111111 C301.432,309.111111 307,314.686222 307,321.555556 Z" id="Path-Copy-2" fill="#919191"></path><path d="M479,465.333333 L479,538.666667 C479,548.981333 470.648,557.333333 460.333333,557.333333 L414.333333,557.333333 L414.333333,603.333333 C414.333333,613.648 405.981333,622 395.666667,622 L322.333333,622 C312.018667,622 303.666667,613.648 303.666667,603.333333 L303.666667,557.333333 L257.666667,557.333333 C247.352,557.333333 239,548.981333 239,538.666667 L239,465.333333 C239,455.029333 247.352,446.666667 257.666667,446.666667 L303.666667,446.666667 L303.666667,400.666667 C303.666667,390.362667 312.018667,382 322.333333,382 L395.666667,382 C405.981333,382 414.333333,390.362667 414.333333,400.666667 L414.333333,446.666667 L460.333333,446.666667 C470.648,446.666667 479,455.029333 479,465.333333 Z" id="Path-Copy-3" fill="#6E6D6D"></path></g></g></svg> 