<?xml version="1.0" encoding="UTF-8"?> <svg xmlns="http://www.w3.org/2000/svg" xmlns:xlink="http://www.w3.org/1999/xlink" width="1044px" height="258px" viewBox="0 0 1044 258" version="1.1"><title>logo copy</title><g id="logo-copy" stroke="none" stroke-width="1" fill="none" fill-rule="evenodd"><g id="Group-2" transform="translate(1.000000, 0.000000)" fill-rule="nonzero"><path d="M155,53.8194444 L155,101.180556 C155,107.842111 149.606,113.236111 142.944444,113.236111 L113.236111,113.236111 L113.236111,142.944444 C113.236111,149.606 107.842111,155 101.180556,155 L53.8194444,155 C47.1578889,155 41.7638889,149.606 41.7638889,142.944444 L41.7638889,113.236111 L12.0555556,113.236111 C5.394,113.236111 0,107.842111 0,101.180556 L0,53.8194444 C0,47.1647778 5.394,41.7638889 12.0555556,41.7638889 L41.7638889,41.7638889 L41.7638889,12.0555556 C41.7638889,5.40088889 47.1578889,0 53.8194444,0 L101.180556,0 C107.842111,0 113.236111,5.40088889 113.236111,12.0555556 L113.236111,41.7638889 L142.944444,41.7638889 C149.606,41.7638889 155,47.1647778 155,53.8194444 Z" id="Path-Copy" fill="#FFFFFF"></path><g id="wmremove-transformed-2" transform="translate(120.000000, 144.500000) scale(-1, 1) translate(-120.000000, -144.500000) translate(9.000000, 31.000000)" fill="#3A3A3A"><g id="Group" transform="translate(111.000000, 113.500000) scale(-1, 1) rotate(-180.000000) translate(-111.000000, -113.500000) "><path d="M45.5498164,226.577386 C42.3437349,225.883864 36.5962474,223.629921 34.6413196,222.286223 C33.6247572,221.549357 32.7254904,220.985871 32.5690962,220.985871 C32.4518005,220.985871 31.1615482,219.815554 29.6758032,218.341822 C26.5088202,215.220976 24.0456113,211.31992 23.6546257,208.805905 C22.9508517,204.167983 21.4260081,202.347489 15.2484364,198.879884 C12.7852274,197.492841 9.34455462,195.368933 7.6242182,194.155271 C5.90388179,192.941608 3.83165838,191.554566 3.01058873,191.07777 C1.25115376,190.037489 -5.68434189e-14,187.91358 -5.68434189e-14,186.049742 C-5.68434189e-14,184.489319 3.55796849,172.699459 4.88731936,169.795339 C6.21667023,166.977909 8.99266762,165.504177 13.0198188,165.504177 C14.2709725,165.504177 16.0695061,165.287452 17.0469699,165.027381 C18.884602,164.50724 21.4260081,164.767311 29.1284234,166.197698 C31.0833511,166.544459 34.172137,166.977909 36.009769,167.107945 C39.3331462,167.32467 39.4504419,167.32467 41.2489754,165.937628 C44.9633381,163.120198 46.8791673,158.005479 48.0912225,147.906077 C48.6386023,143.48488 48.4431095,127.923998 47.700237,112.839913 C47.4265471,107.855229 47.34835,101.310123 47.4656456,98.3193129 C47.7784341,90.9506504 48.482208,88.0031854 53.2522317,74.2627971 C57.6312699,61.6927258 60.3290702,52.2868448 64.1607286,35.902407 C65.177291,31.4812095 66.4284447,24.5459977 66.7021346,21.3818074 C66.8976274,19.4746241 66.7803317,18.3043071 66.3502476,17.1339902 C65.7637693,15.6169126 65.6073751,15.5302224 64.0043343,15.5302224 C59.6643947,15.5302224 56.6929046,9.93870795 58.413241,4.99736957 C59.5470991,1.61645383 59.3907049,1.65979891 75.3820138,1.65979891 L89.4574936,1.65979891 L89.2229022,3.61032721 C89.066508,5.21409494 89.2229022,5.77758089 90.0830704,7.03458802 C90.6695488,7.9014895 91.7252097,8.76839097 92.5462794,9.07180648 C93.3673491,9.33187692 94.1493201,9.76532766 94.3057144,10.0253981 C94.42301,10.2854685 94.774897,12.3660321 95.0485869,14.706666 C95.4004739,18.0442367 95.4004739,19.4746241 95.0485869,21.6852229 C94.071123,27.1033571 92.9372649,29.1405755 86.2123135,37.4194846 C82.1851624,42.404168 80.8167129,44.8314922 79.6046577,49.1226544 C77.5715329,56.1879014 77.5715329,60.3923736 79.6437563,68.8446629 C80.9340086,74.0460717 81.1295014,81.6314596 80.0347418,83.8854034 C79.2136722,85.6192064 78.7444895,85.8792768 74.1699586,87.4396995 C72.2150309,88.1332206 70.1037089,88.913432 69.5563291,89.2168475 C68.5397667,89.7369883 67.6404999,91.2540659 67.6404999,92.467728 C67.6404999,92.8144886 67.2886129,93.3346295 66.8585288,93.68139 C66.1156563,94.244876 64.7081083,97.5824467 64.2389257,99.9230806 C63.8870387,101.526848 64.4344184,102.870546 66.232952,105.081144 C67.5232043,106.728257 68.2269783,108.158645 69.2044421,111.322835 C70.6901872,116.220828 71.7067496,117.954631 74.9128311,121.205512 C77.4542372,123.806216 79.5655592,125.193259 82.4588522,126.103505 C83.3972176,126.406921 84.2182872,126.927061 84.3355829,127.273822 C84.4528785,127.577238 84.1009915,129.571111 83.5145132,131.651674 C82.9671335,133.732238 82.4979508,135.899492 82.4979508,136.376287 C82.4979508,137.85002 83.9445973,137.546604 85.5476381,135.769456 C86.9551861,134.209034 86.9551861,134.209034 87.5025658,135.11928 C87.8153543,135.596076 88.3236355,136.029527 88.6364239,136.029527 C89.2620008,136.029527 93.2109548,133.168752 95.4395725,131.044843 C96.182445,130.351322 98.645654,128.184069 100.874272,126.276885 C112.525641,116.307518 114.832456,112.146391 119.211494,93.3779745 C119.954366,90.3004743 120.970929,87.1362839 121.791998,85.4891711 C123.825123,81.4580793 125.310868,80.7645581 134.108043,79.8976567 C142.514233,79.0741003 144.273668,78.6839946 148.770001,76.7768114 C156.355121,73.5692759 164.057536,65.8971979 168.592969,57.0548029 C170.235108,53.8039224 173.089302,46.6086402 173.597584,44.3546963 C173.793076,43.6611752 174.379555,41.4072313 174.926935,39.3700129 C175.513413,37.3761395 176.647271,31.3078292 177.507439,25.9763852 C178.83679,17.654131 179.071381,15.3134971 179.071381,10.0687432 C179.071381,5.69089075 179.227776,3.82705258 179.579663,3.52363707 C180.830816,2.39666516 188.337739,0.446136846 192.990467,0.0560311842 C197.682293,-0.377419551 205.07192,1.74648905 210.272028,4.95402449 C213.47811,6.94789788 217.778951,11.6725109 219.1474,14.663321 C220.554948,17.7408212 221.610609,21.4684975 221.923397,24.5459977 C222.588073,31.2211391 218.834612,39.8901538 214.260081,42.1874427 C213.399913,42.6208934 212.578843,42.8809638 212.461547,42.7509286 C212.344252,42.6208934 212.969828,41.4505764 213.790898,40.2369144 C218.912809,32.7382166 216.762388,19.6046594 209.568254,14.706666 C204.524541,11.2824052 197.760491,12.2793419 193.967931,17.0473 C191.54382,20.1681453 191.504722,20.2114904 191.426525,38.0696607 C191.348328,53.5438519 191.27013,54.5841337 190.292667,60.1756482 C188.415936,71.0119166 187.282078,75.4764592 184.50608,82.7150864 C183.098532,86.3560726 179.071381,94.9383972 178.28941,95.9353339 C177.898425,96.4121297 177.429242,97.192341 177.194651,97.6691368 C176.334483,99.4896299 171.095276,106.511532 167.380913,110.672659 C160.734159,118.214702 152.992645,125.236604 142.123247,133.645548 C141.067586,134.469104 139.816432,135.422696 139.386348,135.769456 C138.956264,136.072872 137.118632,137.459914 135.281,138.803612 C133.443368,140.147309 131.605736,141.491006 131.175652,141.837767 C130.745568,142.141182 128.634246,143.701605 126.483825,145.305373 C120.071662,150.029986 119.016001,150.896887 114.98885,154.841289 C110.023333,159.652592 107.012745,163.206888 102.633707,169.405234 C99.4276251,173.999811 90.5522531,188.477066 87.7762557,193.678475 C85.3912439,198.143017 82.0287681,203.734532 79.6437563,207.115448 C78.3144054,209.065976 76.3594777,212.273511 75.2647181,214.31073 C71.1984684,221.896118 66.8976274,225.146998 58.9997193,226.577386 C55.950032,227.140871 48.3258138,227.140871 45.5498164,226.577386 Z M48.8731936,211.840061 C48.6386023,209.932877 47.5438427,203.951257 46.4881818,198.533123 C43.8685786,185.529601 44.0640713,184.012523 48.5213066,183.232312 C52.5875563,182.495446 58.2959453,184.229249 61.6975196,187.220059 C63.417856,188.693791 65.2163895,191.684601 65.8419664,194.198616 C66.5457404,197.016045 66.6630361,202.86763 66.0374592,204.904849 C65.529178,206.508616 65.9201635,207.288828 66.584839,206.031821 C67.4059086,204.471398 68.0314855,201.784003 68.2660768,198.663158 C68.7352595,192.941608 66.936726,188.17365 63.0268705,184.92277 C58.9997193,181.585199 53.7996115,179.981431 48.6777008,180.544917 C45.8626049,180.848333 44.6114511,181.498509 43.2430017,183.275657 C41.3662711,185.746326 41.8354537,189.690728 45.7844078,205.815095 C48.4431095,216.694709 48.5213066,216.911434 48.9513907,216.044533 C49.2250806,215.524392 49.185982,214.137349 48.8731936,211.840061 Z" id="Shape"></path><path d="M124.567996,49.9462108 C122.339378,49.1659995 121.244619,48.4724783 118.898705,46.2185345 C116.591891,44.0079358 116.083609,43.0976892 115.653525,40.7570552 C115.301638,38.5031114 114.910653,37.8962804 112.994824,36.5525831 C111.704571,35.6423366 111.46998,35.1221957 109.749644,29.1405755 C108.733081,25.5862795 107.560124,21.1217369 107.13004,19.2145537 C106.191675,15.0967717 103.728466,6.73117251 102.907396,4.91067942 C102.594608,4.21715824 101.969031,3.17687648 101.538947,2.6567356 L100.756976,1.65979891 L107.872913,1.65979891 C114.245977,1.65979891 114.98885,1.74648905 114.558766,2.30997501 C114.285076,2.70008067 114.050485,3.74036244 114.050485,4.73729913 C114.050485,6.86120773 115.223441,8.3782853 117.373862,9.11515156 C119.133297,9.67863751 119.211494,10.0687432 117.882143,11.0223348 C117.334763,11.4124405 116.357299,13.0162082 115.653525,14.5766308 C114.402372,17.3073705 114.363273,17.7408212 114.245977,23.2889906 C114.089583,29.443991 114.402372,31.4378644 116.240004,36.3358577 C118.859607,43.4011047 124.372503,48.3857882 130.66737,49.42607 C132.426805,49.7294855 133.208776,50.032901 132.856889,50.2496263 C132.03582,50.8564574 126.640219,50.639732 124.567996,49.9462108 Z" id="Path"></path></g></g><g id="Group-3" transform="translate(254.130150, 61.000000)"><g id="RIVER-HEIGHTS" transform="translate(5.314094, 0.000000)" fill="#FFFFFF"><path d="M35.6,72 L22.3,46.6 L22.2,46.6 L22.2,72 L0,72 L0,1.2 L33,1.2 C38.7333333,1.2 43.6333333,2.21666667 47.7,4.25 C51.7666667,6.28333333 54.8166667,9.05 56.85,12.55 C58.8833333,16.05 59.9,20 59.9,24.4 C59.9,29.1333333 58.5833333,33.3333333 55.95,37 C53.3166667,40.6666667 49.5333333,43.3 44.6,44.9 L60,72 L35.6,72 Z M22.2,31.8 L31,31.8 C33.1333333,31.8 34.7333333,31.3166667 35.8,30.35 C36.8666667,29.3833333 37.4,27.8666667 37.4,25.8 C37.4,23.9333333 36.85,22.4666667 35.75,21.4 C34.65,20.3333333 33.0666667,19.8 31,19.8 L22.2,19.8 L22.2,31.8 Z" id="Shape"></path><polygon id="Path" points="91.885501 1.2 91.885501 72 69.685501 72 69.685501 1.2"></polygon><polygon id="Path" points="175.871002 1.2 152.071002 72 123.371002 72 99.571002 1.2 123.171002 1.2 137.771002 49.9 152.271002 1.2"></polygon><polygon id="Path" points="205.756503 18.9 205.756503 27.6 227.756503 27.6 227.756503 44.3 205.756503 44.3 205.756503 54.3 230.756503 54.3 230.756503 72 183.556503 72 183.556503 1.2 230.756503 1.2 230.756503 18.9"></polygon><path d="M277.442004,72 L264.142004,46.6 L264.042004,46.6 L264.042004,72 L241.842004,72 L241.842004,1.2 L274.842004,1.2 C280.575337,1.2 285.475337,2.21666667 289.542004,4.25 C293.608671,6.28333333 296.658671,9.05 298.692004,12.55 C300.725337,16.05 301.742004,20 301.742004,24.4 C301.742004,29.1333333 300.425337,33.3333333 297.792004,37 C295.158671,40.6666667 291.375337,43.3 286.442004,44.9 L301.842004,72 L277.442004,72 Z M264.042004,31.8 L272.842004,31.8 C274.975337,31.8 276.575337,31.3166667 277.642004,30.35 C278.708671,29.3833333 279.242004,27.8666667 279.242004,25.8 C279.242004,23.9333333 278.692004,22.4666667 277.592004,21.4 C276.492004,20.3333333 274.908671,19.8 272.842004,19.8 L264.042004,19.8 L264.042004,31.8 Z" id="Shape"></path><polygon id="Path" points="396.713006 1.2 396.713006 72 374.513006 72 374.513006 44.4 353.413006 44.4 353.413006 72 331.213006 72 331.213006 1.2 353.413006 1.2 353.413006 26.7 374.513006 26.7 374.513006 1.2"></polygon><polygon id="Path" points="431.598507 18.9 431.598507 27.6 453.598507 27.6 453.598507 44.3 431.598507 44.3 431.598507 54.3 456.598507 54.3 456.598507 72 409.398507 72 409.398507 1.2 456.598507 1.2 456.598507 18.9"></polygon><polygon id="Path" points="489.884008 1.2 489.884008 72 467.684008 72 467.684008 1.2"></polygon><path d="M545.969509,25.4 C545.102842,24 543.869509,22.9166667 542.269509,22.15 C540.669509,21.3833333 538.736175,21 536.469509,21 C532.202842,21 528.902842,22.3833333 526.569509,25.15 C524.236175,27.9166667 523.069509,31.7 523.069509,36.5 C523.069509,42.0333333 524.369509,46.1666667 526.969509,48.9 C529.569509,51.6333333 533.569509,53 538.969509,53 C544.102842,53 548.236175,50.9333333 551.369509,46.8 L533.669509,46.8 L533.669509,31.1 L569.769509,31.1 L569.769509,53.3 C566.702842,58.5666667 562.469509,63.0833333 557.069509,66.85 C551.669509,70.6166667 544.836175,72.5 536.569509,72.5 C529.236175,72.5 522.852842,70.9833333 517.419509,67.95 C511.986175,64.9166667 507.819509,60.6666667 504.919509,55.2 C502.019509,49.7333333 500.569509,43.5 500.569509,36.5 C500.569509,29.5 502.019509,23.2666667 504.919509,17.8 C507.819509,12.3333333 511.969509,8.08333333 517.369509,5.05 C522.769509,2.01666667 529.102842,0.5 536.369509,0.5 C545.636175,0.5 553.186175,2.73333333 559.019509,7.2 C564.852842,11.6666667 568.302842,17.7333333 569.369509,25.4 L545.969509,25.4 Z" id="Path"></path><polygon id="Path" points="645.95501 1.2 645.95501 72 623.75501 72 623.75501 44.4 602.65501 44.4 602.65501 72 580.45501 72 580.45501 1.2 602.65501 1.2 602.65501 26.7 623.75501 26.7 623.75501 1.2"></polygon><polygon id="Path" points="714.240511 1.2 714.240511 18.8 695.440511 18.8 695.440511 72 673.240511 72 673.240511 18.8 654.640511 18.8 654.640511 1.2"></polygon><path d="M750.626012,72.7 C742.159345,72.7 735.176012,70.7166667 729.676012,66.75 C724.176012,62.7833333 721.192678,56.9666667 720.726012,49.3 L744.326012,49.3 C744.659345,53.3666667 746.459345,55.4 749.726012,55.4 C750.926012,55.4 751.942678,55.1166667 752.776012,54.55 C753.609345,53.9833333 754.026012,53.1 754.026012,51.9 C754.026012,50.2333333 753.126012,48.8833333 751.326012,47.85 C749.526012,46.8166667 746.726012,45.6333333 742.926012,44.3 C738.392678,42.7 734.642678,41.1333333 731.676012,39.6 C728.709345,38.0666667 726.159345,35.8333333 724.026012,32.9 C721.892678,29.9666667 720.859345,26.2 720.926012,21.6 C720.926012,17 722.109345,13.0833333 724.476012,9.85 C726.842678,6.61666667 730.076012,4.16666667 734.176012,2.5 C738.276012,0.833333333 742.892678,0 748.026012,0 C756.692678,0 763.576012,2 768.676012,6 C773.776012,10 776.459345,15.6333333 776.726012,22.9 L752.826012,22.9 C752.759345,20.9 752.259345,19.4666667 751.326012,18.6 C750.392678,17.7333333 749.259345,17.3 747.926012,17.3 C746.992678,17.3 746.226012,17.6166667 745.626012,18.25 C745.026012,18.8833333 744.726012,19.7666667 744.726012,20.9 C744.726012,22.5 745.609345,23.8166667 747.376012,24.85 C749.142678,25.8833333 751.959345,27.1333333 755.826012,28.6 C760.292678,30.2666667 763.976012,31.8666667 766.876012,33.4 C769.776012,34.9333333 772.292678,37.0666667 774.426012,39.8 C776.559345,42.5333333 777.626012,45.9666667 777.626012,50.1 C777.626012,54.4333333 776.559345,58.3166667 774.426012,61.75 C772.292678,65.1833333 769.192678,67.8666667 765.126012,69.8 C761.059345,71.7333333 756.226012,72.7 750.626012,72.7 Z" id="Path"></path></g><g id="ANIMAL-HOSPITAL" transform="translate(0.000000, 95.003200)" fill="#3A3A3A"><path d="M34.99776,42.56672 L18.60992,42.56672 L16.17952,49.9968 L0,49.9968 L17.98496,0.83328 L35.7616,0.83328 L53.67712,49.9968 L37.42816,49.9968 L34.99776,42.56672 Z M31.248,30.97024 L26.80384,17.29056 L22.35968,30.97024 L31.248,30.97024 Z" id="Shape"></path><polygon id="Path" points="113.791692 49.9968 98.376012 49.9968 82.057612 25.27616 82.057612 49.9968 66.641932 49.9968 66.641932 0.83328 82.057612 0.83328 98.376012 25.97056 98.376012 0.83328 113.791692 0.83328"></polygon><polygon id="Path" points="145.644184 0.83328 145.644184 49.9968 130.228504 49.9968 130.228504 0.83328"></polygon><polygon id="Path" points="221.174436 0.83328 221.174436 49.9968 205.828196 49.9968 205.828196 25.48448 198.259236 49.9968 185.065636 49.9968 177.496676 25.48448 177.496676 49.9968 162.080996 49.9968 162.080996 0.83328 180.968676 0.83328 191.801316 30.34528 202.356196 0.83328"></polygon><path d="M269.137008,42.56672 L252.749168,42.56672 L250.318768,49.9968 L234.139248,49.9968 L252.124208,0.83328 L269.900848,0.83328 L287.816368,49.9968 L271.567408,49.9968 L269.137008,42.56672 Z M265.387248,30.97024 L260.943088,17.29056 L256.498928,30.97024 L265.387248,30.97024 Z" id="Shape"></path><polygon id="Path" points="316.19686 38.33088 331.05702 38.33088 331.05702 49.9968 300.78118 49.9968 300.78118 0.83328 316.19686 0.83328"></polygon><polygon id="Path" points="412.191444 0.83328 412.191444 49.9968 396.775764 49.9968 396.775764 30.83136 382.123924 30.83136 382.123924 49.9968 366.708244 49.9968 366.708244 0.83328 382.123924 0.83328 382.123924 18.54048 396.775764 18.54048 396.775764 0.83328"></polygon><path d="M452.585056,50.48288 C447.955723,50.48288 443.708309,49.3949867 439.842816,47.2192 C435.977323,45.0434133 432.910389,42.0343467 430.642016,38.192 C428.373643,34.3496533 427.239456,30.0212267 427.239456,25.20672 C427.239456,20.3922133 428.373643,16.0637867 430.642016,12.22144 C432.910389,8.37909333 435.977323,5.3816 439.842816,3.22896 C443.708309,1.07632 447.955723,0 452.585056,0 C457.214389,0 461.450229,1.07632 465.292576,3.22896 C469.134923,5.3816 472.178709,8.37909333 474.423936,12.22144 C476.669163,16.0637867 477.791776,20.3922133 477.791776,25.20672 C477.791776,30.0212267 476.669163,34.3496533 474.423936,38.192 C472.178709,42.0343467 469.123349,45.0434133 465.257856,47.2192 C461.392363,49.3949867 457.168096,50.48288 452.585056,50.48288 Z M452.585056,36.1088 C455.640416,36.1088 458.001376,35.1250667 459.667936,33.1576 C461.334496,31.1901333 462.167776,28.53984 462.167776,25.20672 C462.167776,21.8273067 461.334496,19.1538667 459.667936,17.1864 C458.001376,15.2189333 455.640416,14.2352 452.585056,14.2352 C449.483403,14.2352 447.099296,15.2189333 445.432736,17.1864 C443.766176,19.1538667 442.932896,21.8273067 442.932896,25.20672 C442.932896,28.53984 443.766176,31.1901333 445.432736,33.1576 C447.099296,35.1250667 449.483403,36.1088 452.585056,36.1088 Z" id="Shape"></path><path d="M512.074668,50.48288 C506.195415,50.48288 501.346188,49.1056533 497.526988,46.3512 C493.707788,43.5967467 491.636161,39.5576533 491.312108,34.23392 L507.699948,34.23392 C507.931415,37.0578133 509.181335,38.46976 511.449708,38.46976 C512.282988,38.46976 512.988961,38.2730133 513.567628,37.87952 C514.146295,37.4860267 514.435628,36.87264 514.435628,36.03936 C514.435628,34.8820267 513.810668,33.9445867 512.560748,33.22704 C511.310828,32.5094933 509.366508,31.6877867 506.727788,30.76192 C503.579841,29.65088 500.975841,28.5629867 498.915788,27.49824 C496.855735,26.4334933 495.085015,24.8826667 493.603628,22.84576 C492.122241,20.8088533 491.404695,18.19328 491.450988,14.99904 C491.450988,11.8048 492.272695,9.08506667 493.916108,6.83984 C495.559521,4.59461333 497.804748,2.89333333 500.651788,1.736 C503.498828,0.578666667 506.704641,0 510.269228,0 C516.287361,0 521.067148,1.3888 524.608588,4.1664 C528.150028,6.944 530.013335,10.8557867 530.198508,15.90176 L513.602348,15.90176 C513.556055,14.51296 513.208855,13.5176533 512.560748,12.91584 C511.912641,12.3140267 511.125655,12.01312 510.199788,12.01312 C509.551681,12.01312 509.019308,12.2330133 508.602668,12.6728 C508.186028,13.1125867 507.977708,13.7259733 507.977708,14.51296 C507.977708,15.624 508.591095,16.5382933 509.817868,17.25584 C511.044641,17.9733867 513.000535,18.8413867 515.685548,19.85984 C518.787201,21.0171733 521.344908,22.1282133 523.358668,23.19296 C525.372428,24.2577067 527.120001,25.7390933 528.601388,27.63712 C530.082775,29.5351467 530.823468,31.9192533 530.823468,34.78944 C530.823468,37.7985067 530.082775,40.4950933 528.601388,42.8792 C527.120001,45.2633067 524.967361,47.1266133 522.143468,48.46912 C519.319575,49.8116267 515.963308,50.48288 512.074668,50.48288 Z" id="Path"></path><path d="M585.93836,17.7072 C585.93836,20.8088533 585.220813,23.6211733 583.78572,26.14416 C582.350627,28.6671467 580.232707,30.6693333 577.43196,32.15072 C574.631213,33.6321067 571.240227,34.3728 567.259,34.3728 L561.14828,34.3728 L561.14828,49.9968 L545.7326,49.9968 L545.7326,0.83328 L567.259,0.83328 C573.277133,0.83328 577.894893,2.36096 581.11228,5.41632 C584.329667,8.47168 585.93836,12.56864 585.93836,17.7072 Z M565.523,22.2208 C568.71724,22.2208 570.31436,20.7162667 570.31436,17.7072 C570.31436,14.6981333 568.71724,13.1936 565.523,13.1936 L561.14828,13.1936 L561.14828,22.2208 L565.523,22.2208 Z" id="Shape"></path><polygon id="Path" points="615.707652 0.83328 615.707652 49.9968 600.291972 49.9968 600.291972 0.83328"></polygon><polygon id="Path" points="670.753104 0.83328 670.753104 13.05472 657.698384 13.05472 657.698384 49.9968 642.282704 49.9968 642.282704 13.05472 629.366864 13.05472 629.366864 0.83328"></polygon><path d="M715.938076,42.56672 L699.550236,42.56672 L697.119836,49.9968 L680.940316,49.9968 L698.925276,0.83328 L716.701916,0.83328 L734.617436,49.9968 L718.368476,49.9968 L715.938076,42.56672 Z M712.188316,30.97024 L707.744156,17.29056 L703.299996,30.97024 L712.188316,30.97024 Z" id="Shape"></path><polygon id="Path" points="762.997928 38.33088 777.858088 38.33088 777.858088 49.9968 747.582248 49.9968 747.582248 0.83328 762.997928 0.83328"></polygon></g></g></g></g></svg> 